<svg xmlns="http://www.w3.org/2000/svg" viewBox="0 0 512 512" width="512" height="512">
<style>
  .bg{fill:#000814}.fur{fill:#f0f4f8}.fur2{fill:#dce4ee}.stripe{fill:#1a2a3a}.eo{fill:#00c8e0}.ei{fill:#004d5a}.nose{fill:#e88aa0}.mouth{fill:none;stroke:#1a2a3a;stroke-width:2.4;stroke-linecap:round}.wh{stroke:#ccd6e0;stroke-width:1.3;stroke-linecap:round}.ie{fill:#e88aa0}
</style>
<rect width="512" height="512" rx="96" class="bg"/>
<circle cx="256" cy="256" r="211" fill="none" stroke="#00c8e0" stroke-width="1.6" opacity=".4"/>
<ellipse cx="155" cy="147" rx="53" ry="61" class="fur"/>
<ellipse cx="357" cy="147" rx="53" ry="61" class="fur"/>
<ellipse cx="155" cy="149" rx="32" ry="40" class="ie"/>
<ellipse cx="357" cy="149" rx="32" ry="40" class="ie"/>
<ellipse cx="155" cy="133" rx="14" ry="21" class="stripe" opacity=".7"/>
<ellipse cx="357" cy="133" rx="14" ry="21" class="stripe" opacity=".7"/>
<ellipse cx="256" cy="277" rx="158" ry="152" class="fur"/>
<ellipse cx="131" cy="315" rx="61" ry="49" class="fur2"/>
<ellipse cx="381" cy="315" rx="61" ry="49" class="fur2"/>
<path d="M256 131 Q258 166 256 197" stroke="#1a2a3a" stroke-width="12" fill="none" stroke-linecap="round"/>
<path d="M219 139 Q209 170 205 197" stroke="#1a2a3a" stroke-width="8" fill="none" stroke-linecap="round"/>
<path d="M184 155 Q171 184 166 206" stroke="#1a2a3a" stroke-width="7" fill="none" stroke-linecap="round"/>
<path d="M293 139 Q303 170 307 197" stroke="#1a2a3a" stroke-width="8" fill="none" stroke-linecap="round"/>
<path d="M328 155 Q341 184 346 206" stroke="#1a2a3a" stroke-width="7" fill="none" stroke-linecap="round"/>
<path d="M134 271 Q115 290 112 314" stroke="#1a2a3a" stroke-width="7.5" fill="none" stroke-linecap="round" opacity=".8"/>
<path d="M141 303 Q121 327 119 348" stroke="#1a2a3a" stroke-width="7" fill="none" stroke-linecap="round" opacity=".8"/>
<path d="M148 333 Q130 353 128 372" stroke="#1a2a3a" stroke-width="6" fill="none" stroke-linecap="round" opacity=".7"/>
<path d="M378 271 Q397 290 400 314" stroke="#1a2a3a" stroke-width="7.5" fill="none" stroke-linecap="round" opacity=".8"/>
<path d="M371 303 Q391 327 393 348" stroke="#1a2a3a" stroke-width="7" fill="none" stroke-linecap="round" opacity=".8"/>
<path d="M364 333 Q382 353 384 372" stroke="#1a2a3a" stroke-width="6" fill="none" stroke-linecap="round" opacity=".7"/>
<ellipse cx="193" cy="249" rx="32" ry="24" class="eo"/>
<ellipse cx="193" cy="249" rx="21" ry="20" class="ei"/>
<ellipse cx="195" cy="247" rx="11" ry="15" fill="#000"/>
<ellipse cx="199" cy="243" rx="5" ry="4" fill="white" opacity=".7"/>
<ellipse cx="319" cy="249" rx="32" ry="24" class="eo"/>
<ellipse cx="319" cy="249" rx="21" ry="20" class="ei"/>
<ellipse cx="321" cy="247" rx="11" ry="15" fill="#000"/>
<ellipse cx="325" cy="243" rx="5" ry="4" fill="white" opacity=".7"/>
<path d="M236 312 Q256 302 276 312 Q270 329 256 333 Q242 329 236 312Z" class="nose"/>
<path d="M248 312 Q256 307 264 312" fill="#c06070"/>
<path d="M256 333 Q256 346 246 352" class="mouth"/>
<path d="M256 333 Q256 346 266 352" class="mouth"/>
<path d="M230 352 Q243 360 256 356 Q269 360 282 352" class="mouth"/>
<line x1="234" y1="320" x2="113" y2="313" class="wh"/>
<line x1="234" y1="330" x2="112" y2="334" class="wh"/>
<line x1="232" y1="339" x2="113" y2="354" class="wh"/>
<line x1="278" y1="320" x2="399" y2="313" class="wh"/>
<line x1="278" y1="330" x2="400" y2="334" class="wh"/>
<line x1="280" y1="339" x2="399" y2="354" class="wh"/>
<ellipse cx="256" cy="376" rx="41" ry="26" class="fur"/>
<text x="256" y="460" text-anchor="middle" font-family="Arial,sans-serif" font-size="18" font-weight="bold" fill="#00c8e0" letter-spacing="4" opacity=".85">J.A.R.V.I.S.</text>
</svg>
