<svg xmlns="http://www.w3.org/2000/svg" viewBox="0 0 192 192" width="192" height="192">
<style>
  .bg{fill:#000814}.fur{fill:#f0f4f8}.fur2{fill:#dce4ee}.stripe{fill:#1a2a3a}.eo{fill:#00c8e0}.ei{fill:#004d5a}.nose{fill:#e88aa0}.mouth{fill:none;stroke:#1a2a3a;stroke-width:.9;stroke-linecap:round}.wh{stroke:#ccd6e0;stroke-width:.5;stroke-linecap:round}.ie{fill:#e88aa0}
</style>
<rect width="192" height="192" rx="36" class="bg"/>
<circle cx="96" cy="96" r="79" fill="none" stroke="#00c8e0" stroke-width=".6" opacity=".4"/>
<ellipse cx="58" cy="55" rx="20" ry="23" class="fur"/>
<ellipse cx="134" cy="55" rx="20" ry="23" class="fur"/>
<ellipse cx="58" cy="56" rx="12" ry="15" class="ie"/>
<ellipse cx="134" cy="56" rx="12" ry="15" class="ie"/>
<ellipse cx="58" cy="50" rx="5" ry="8" class="stripe" opacity=".7"/>
<ellipse cx="134" cy="50" rx="5" ry="8" class="stripe" opacity=".7"/>
<ellipse cx="96" cy="104" rx="59" ry="57" class="fur"/>
<ellipse cx="49" cy="118" rx="23" ry="18" class="fur2"/>
<ellipse cx="143" cy="118" rx="23" ry="18" class="fur2"/>
<path d="M96 49 Q97 62 96 74" stroke="#1a2a3a" stroke-width="4.5" fill="none" stroke-linecap="round"/>
<path d="M82 52 Q78 64 77 74" stroke="#1a2a3a" stroke-width="3" fill="none" stroke-linecap="round"/>
<path d="M69 58 Q64 69 62 77" stroke="#1a2a3a" stroke-width="2.5" fill="none" stroke-linecap="round"/>
<path d="M110 52 Q114 64 115 74" stroke="#1a2a3a" stroke-width="3" fill="none" stroke-linecap="round"/>
<path d="M123 58 Q128 69 130 77" stroke="#1a2a3a" stroke-width="2.5" fill="none" stroke-linecap="round"/>
<path d="M50 101 Q43 109 42 118" stroke="#1a2a3a" stroke-width="2.8" fill="none" stroke-linecap="round" opacity=".8"/>
<path d="M53 113 Q46 122 45 130" stroke="#1a2a3a" stroke-width="2.5" fill="none" stroke-linecap="round" opacity=".8"/>
<path d="M142 101 Q149 109 150 118" stroke="#1a2a3a" stroke-width="2.8" fill="none" stroke-linecap="round" opacity=".8"/>
<path d="M139 113 Q146 122 147 130" stroke="#1a2a3a" stroke-width="2.5" fill="none" stroke-linecap="round" opacity=".8"/>
<ellipse cx="72" cy="93" rx="12" ry="9" class="eo"/>
<ellipse cx="72" cy="93" rx="8" ry="7" class="ei"/>
<ellipse cx="73" cy="92" rx="4" ry="6" fill="#000"/>
<ellipse cx="75" cy="90" rx="2" ry="1.5" fill="white" opacity=".7"/>
<ellipse cx="120" cy="93" rx="12" ry="9" class="eo"/>
<ellipse cx="120" cy="93" rx="8" ry="7" class="ei"/>
<ellipse cx="121" cy="92" rx="4" ry="6" fill="#000"/>
<ellipse cx="123" cy="90" rx="2" ry="1.5" fill="white" opacity=".7"/>
<path d="M88 117 Q96 113 104 117 Q101 124 96 125 Q91 124 88 117Z" class="nose"/>
<path d="M96 125 Q96 130 92 133" class="mouth"/>
<path d="M96 125 Q96 130 100 133" class="mouth"/>
<path d="M86 133 Q91 136 96 134 Q101 136 106 133" class="mouth"/>
<line x1="87" y1="120" x2="42" y2="117" class="wh"/>
<line x1="87" y1="123" x2="42" y2="126" class="wh"/>
<line x1="87" y1="126" x2="42" y2="133" class="wh"/>
<line x1="105" y1="120" x2="150" y2="117" class="wh"/>
<line x1="105" y1="123" x2="150" y2="126" class="wh"/>
<line x1="105" y1="126" x2="150" y2="133" class="wh"/>
<ellipse cx="96" cy="141" rx="15" ry="10" class="fur"/>
<text x="96" y="172" text-anchor="middle" font-family="Arial,sans-serif" font-size="7" font-weight="bold" fill="#00c8e0" letter-spacing="1.5" opacity=".85">J.A.R.V.I.S.</text>
</svg>
